<svg width="20" height="20" viewBox="0 0 20 20" fill="none" xmlns="http://www.w3.org/2000/svg">
<path d="M10.2953 0.350098C15.5478 0.350098 19.8034 4.60576 19.8034 9.85825C19.8034 15.1107 15.5478 19.3664 10.2953 19.3664C5.04277 19.3664 0.787109 15.1107 0.787109 9.85825C0.787109 4.60576 5.04277 0.350098 10.2953 0.350098ZM9.18726 5.85563L12.0819 8.63139H5.08111C4.5712 8.63139 4.16097 9.04162 4.16097 9.55154V10.165C4.16097 10.6749 4.5712 11.0851 5.08111 11.0851H12.0819L9.18726 13.8609C8.81536 14.2174 8.8077 14.8117 9.17192 15.1759L9.59365 15.5938C9.95404 15.9542 10.5368 15.9542 10.8934 15.5938L15.981 10.51C16.3414 10.1496 16.3414 9.56687 15.981 9.21032L10.8934 4.11885C10.533 3.75846 9.95021 3.75846 9.59365 4.11885L9.17192 4.53675C8.8077 4.90481 8.81536 5.49907 9.18726 5.85563Z" fill="#012C79"/>
</svg>
