<svg width="870" height="871" viewBox="0 0 870 871" fill="none" xmlns="http://www.w3.org/2000/svg">
<ellipse cx="435" cy="435.576" rx="240" ry="240" transform="rotate(-90 435 435.576)" fill="url(#paint0_radial_1116_2553)" fill-opacity="0.24"/>
<mask id="mask0_1116_2553" style="mask-type:alpha" maskUnits="userSpaceOnUse" x="35" y="35" width="800" height="801">
<rect x="35" y="35.5757" width="800" height="800" fill="url(#paint1_radial_1116_2553)"/>
</mask>
<g mask="url(#mask0_1116_2553)">
<rect x="0.5" y="1.07568" width="79" height="79" stroke="#D4B2FF"/>
<rect x="79.5" y="1.07568" width="79" height="79" stroke="#D4B2FF"/>
<rect x="158.5" y="1.07568" width="79" height="79" stroke="#D4B2FF"/>
<rect x="237.5" y="1.07568" width="79" height="79" stroke="#D4B2FF"/>
<rect x="316.5" y="1.07568" width="79" height="79" stroke="#D4B2FF"/>
<rect x="395.5" y="1.07568" width="79" height="79" stroke="#D4B2FF"/>
<rect x="474.5" y="1.07568" width="79" height="79" stroke="#D4B2FF"/>
<rect x="553.5" y="1.07568" width="79" height="79" stroke="#D4B2FF"/>
<rect x="632.5" y="1.07568" width="79" height="79" stroke="#D4B2FF"/>
<rect x="711.5" y="1.07568" width="79" height="79" fill="#D4B2FF" fill-opacity="0.24" stroke="#D4B2FF"/>
<rect x="790.5" y="1.07568" width="79" height="79" stroke="#D4B2FF"/>
<rect x="0.5" y="80.0757" width="79" height="79" stroke="#D4B2FF"/>
<rect x="79.5" y="80.0757" width="79" height="79" stroke="#D4B2FF"/>
<rect x="158.5" y="80.0757" width="79" height="79" fill="#D4B2FF" fill-opacity="0.24" stroke="#D4B2FF"/>
<rect x="237.5" y="80.0757" width="79" height="79" stroke="#D4B2FF"/>
<rect x="316.5" y="80.0757" width="79" height="79" stroke="#D4B2FF"/>
<rect x="395.5" y="80.0757" width="79" height="79" stroke="#D4B2FF"/>
<rect x="474.5" y="80.0757" width="79" height="79" stroke="#D4B2FF"/>
<rect x="553.5" y="80.0757" width="79" height="79" stroke="#D4B2FF"/>
<rect x="632.5" y="80.0757" width="79" height="79" stroke="#D4B2FF"/>
<rect x="711.5" y="80.0757" width="79" height="79" stroke="#D4B2FF"/>
<rect x="790.5" y="80.0757" width="79" height="79" stroke="#D4B2FF"/>
<rect x="0.5" y="159.076" width="79" height="79" stroke="#D4B2FF"/>
<rect x="79.5" y="159.076" width="79" height="79" stroke="#D4B2FF"/>
<rect x="158.5" y="159.076" width="79" height="79" stroke="#D4B2FF"/>
<rect x="237.5" y="159.076" width="79" height="79" stroke="#D4B2FF"/>
<rect x="316.5" y="159.076" width="79" height="79" stroke="#D4B2FF"/>
<rect x="395.5" y="159.076" width="79" height="79" stroke="#D4B2FF"/>
<rect x="474.5" y="159.076" width="79" height="79" stroke="#D4B2FF"/>
<rect x="553.5" y="159.076" width="79" height="79" fill="#D4B2FF" fill-opacity="0.24" stroke="#D4B2FF"/>
<rect x="632.5" y="159.076" width="79" height="79" stroke="#D4B2FF"/>
<rect x="711.5" y="159.076" width="79" height="79" stroke="#D4B2FF"/>
<rect x="790.5" y="159.076" width="79" height="79" stroke="#D4B2FF"/>
<rect x="0.5" y="238.076" width="79" height="79" stroke="#D4B2FF"/>
<rect x="79.5" y="238.076" width="79" height="79" stroke="#D4B2FF"/>
<rect x="158.5" y="238.076" width="79" height="79" stroke="#D4B2FF"/>
<rect x="237.5" y="238.076" width="79" height="79" stroke="#D4B2FF"/>
<rect x="316.5" y="238.076" width="79" height="79" fill="#D4B2FF" fill-opacity="0.24" stroke="#D4B2FF"/>
<rect x="395.5" y="238.076" width="79" height="79" stroke="#D4B2FF"/>
<rect x="474.5" y="238.076" width="79" height="79" stroke="#D4B2FF"/>
<rect x="553.5" y="238.076" width="79" height="79" stroke="#D4B2FF"/>
<rect x="632.5" y="238.076" width="79" height="79" stroke="#D4B2FF"/>
<rect x="711.5" y="238.076" width="79" height="79" stroke="#D4B2FF"/>
<rect x="790.5" y="238.076" width="79" height="79" stroke="#D4B2FF"/>
<rect x="0.5" y="317.076" width="79" height="79" stroke="#D4B2FF"/>
<rect x="79.5" y="317.076" width="79" height="79" stroke="#D4B2FF"/>
<rect x="158.5" y="317.076" width="79" height="79" stroke="#D4B2FF"/>
<rect x="237.5" y="317.076" width="79" height="79" fill="#D4B2FF" fill-opacity="0.16" stroke="#D4B2FF"/>
<rect x="316.5" y="317.076" width="79" height="79" stroke="#D4B2FF"/>
<rect x="395.5" y="317.076" width="79" height="79" stroke="#D4B2FF"/>
<rect x="474.5" y="317.076" width="79" height="79" stroke="#D4B2FF"/>
<rect x="553.5" y="317.076" width="79" height="79" stroke="#D4B2FF"/>
<rect x="632.5" y="317.076" width="79" height="79" stroke="#D4B2FF"/>
<rect x="711.5" y="317.076" width="79" height="79" stroke="#D4B2FF"/>
<rect x="790.5" y="317.076" width="79" height="79" stroke="#D4B2FF"/>
<rect x="0.5" y="396.076" width="79" height="79" stroke="#D4B2FF"/>
<rect x="79.5" y="396.076" width="79" height="79" stroke="#D4B2FF"/>
<rect x="158.5" y="396.076" width="79" height="79" stroke="#D4B2FF"/>
<rect x="237.5" y="396.076" width="79" height="79" fill="#D4B2FF" fill-opacity="0.24" stroke="#D4B2FF"/>
<rect x="316.5" y="396.076" width="79" height="79" stroke="#D4B2FF"/>
<rect x="395.5" y="396.076" width="79" height="79" stroke="#D4B2FF"/>
<rect x="474.5" y="396.076" width="79" height="79" fill="#D4B2FF" fill-opacity="0.24" stroke="#D4B2FF"/>
<rect x="553.5" y="396.076" width="79" height="79" fill="#D4B2FF" fill-opacity="0.24" stroke="#D4B2FF"/>
<rect x="632.5" y="396.076" width="79" height="79" stroke="#D4B2FF"/>
<rect x="711.5" y="396.076" width="79" height="79" stroke="#D4B2FF"/>
<rect x="790.5" y="396.076" width="79" height="79" stroke="#D4B2FF"/>
<rect x="0.5" y="475.076" width="79" height="79" stroke="#D4B2FF"/>
<rect x="79.5" y="475.076" width="79" height="79" fill="#D4B2FF" fill-opacity="0.24" stroke="#D4B2FF"/>
<rect x="158.5" y="475.076" width="79" height="79" fill="#D4B2FF" fill-opacity="0.24" stroke="#D4B2FF"/>
<rect x="237.5" y="475.076" width="79" height="79" stroke="#D4B2FF"/>
<rect x="316.5" y="475.076" width="79" height="79" fill="#D4B2FF" fill-opacity="0.16" stroke="#D4B2FF"/>
<rect x="395.5" y="475.076" width="79" height="79" stroke="#D4B2FF"/>
<rect x="474.5" y="475.076" width="79" height="79" stroke="#D4B2FF"/>
<rect x="553.5" y="475.076" width="79" height="79" fill="#D4B2FF" fill-opacity="0.16" stroke="#D4B2FF"/>
<rect x="632.5" y="475.076" width="79" height="79" fill="#D4B2FF" fill-opacity="0.5" stroke="#D4B2FF"/>
<rect x="711.5" y="475.076" width="79" height="79" fill="#D4B2FF" fill-opacity="0.4" stroke="#D4B2FF"/>
<rect x="790.5" y="475.076" width="79" height="79" stroke="#D4B2FF"/>
<rect x="0.5" y="554.076" width="79" height="79" stroke="#D4B2FF"/>
<rect x="79.5" y="554.076" width="79" height="79" stroke="#D4B2FF"/>
<rect x="158.5" y="554.076" width="79" height="79" stroke="#D4B2FF"/>
<rect x="237.5" y="554.076" width="79" height="79" stroke="#D4B2FF"/>
<rect x="316.5" y="554.076" width="79" height="79" stroke="#D4B2FF"/>
<rect x="395.5" y="554.076" width="79" height="79" stroke="#D4B2FF"/>
<rect x="474.5" y="554.076" width="79" height="79" stroke="#D4B2FF"/>
<rect x="553.5" y="554.076" width="79" height="79" stroke="#D4B2FF"/>
<rect x="632.5" y="554.076" width="79" height="79" stroke="#D4B2FF"/>
<rect x="711.5" y="554.076" width="79" height="79" stroke="#D4B2FF"/>
<rect x="790.5" y="554.076" width="79" height="79" stroke="#D4B2FF"/>
<rect x="0.5" y="633.076" width="79" height="79" stroke="#D4B2FF"/>
<rect x="79.5" y="633.076" width="79" height="79" stroke="#D4B2FF"/>
<rect x="158.5" y="633.076" width="79" height="79" stroke="#D4B2FF"/>
<rect x="237.5" y="633.076" width="79" height="79" fill="#D4B2FF" fill-opacity="0.24" stroke="#D4B2FF"/>
<rect x="316.5" y="633.076" width="79" height="79" stroke="#D4B2FF"/>
<rect x="395.5" y="633.076" width="79" height="79" stroke="#D4B2FF"/>
<rect x="474.5" y="633.076" width="79" height="79" stroke="#D4B2FF"/>
<rect x="553.5" y="633.076" width="79" height="79" stroke="#D4B2FF"/>
<rect x="632.5" y="633.076" width="79" height="79" stroke="#D4B2FF"/>
<rect x="711.5" y="633.076" width="79" height="79" stroke="#D4B2FF"/>
<rect x="790.5" y="633.076" width="79" height="79" stroke="#D4B2FF"/>
<rect x="0.5" y="712.076" width="79" height="79" stroke="#D4B2FF"/>
<rect x="79.5" y="712.076" width="79" height="79" stroke="#D4B2FF"/>
<rect x="158.5" y="712.076" width="79" height="79" stroke="#D4B2FF"/>
<rect x="237.5" y="712.076" width="79" height="79" stroke="#D4B2FF"/>
<rect x="316.5" y="712.076" width="79" height="79" stroke="#D4B2FF"/>
<rect x="395.5" y="712.076" width="79" height="79" stroke="#D4B2FF"/>
<rect x="474.5" y="712.076" width="79" height="79" stroke="#D4B2FF"/>
<rect x="553.5" y="712.076" width="79" height="79" stroke="#D4B2FF"/>
<rect x="632.5" y="712.076" width="79" height="79" stroke="#D4B2FF"/>
<rect x="711.5" y="712.076" width="79" height="79" stroke="#D4B2FF"/>
<rect x="790.5" y="712.076" width="79" height="79" stroke="#D4B2FF"/>
<rect x="0.5" y="791.076" width="79" height="79" stroke="#D4B2FF"/>
<rect x="79.5" y="791.076" width="79" height="79" stroke="#D4B2FF"/>
<rect x="158.5" y="791.076" width="79" height="79" stroke="#D4B2FF"/>
<rect x="237.5" y="791.076" width="79" height="79" stroke="#D4B2FF"/>
<rect x="316.5" y="791.076" width="79" height="79" stroke="#D4B2FF"/>
<rect x="395.5" y="791.076" width="79" height="79" stroke="#D4B2FF"/>
<rect x="474.5" y="791.076" width="79" height="79" stroke="#D4B2FF"/>
<rect x="553.5" y="791.076" width="79" height="79" stroke="#D4B2FF"/>
<rect x="632.5" y="791.076" width="79" height="79" stroke="#D4B2FF"/>
<rect x="711.5" y="791.076" width="79" height="79" stroke="#D4B2FF"/>
<rect x="790.5" y="791.076" width="79" height="79" stroke="#D4B2FF"/>
</g>
<defs>
<radialGradient id="paint0_radial_1116_2553" cx="0" cy="0" r="1" gradientUnits="userSpaceOnUse" gradientTransform="translate(435 435.576) rotate(180) scale(240 240)">
<stop stop-color="#9C4FFF"/>
<stop offset="1" stop-color="#9C4FFF" stop-opacity="0"/>
</radialGradient>
<radialGradient id="paint1_radial_1116_2553" cx="0" cy="0" r="1" gradientUnits="userSpaceOnUse" gradientTransform="translate(435 435.576) rotate(90) scale(400)">
<stop stop-color="white" stop-opacity="0.24"/>
<stop offset="1" stop-color="white" stop-opacity="0"/>
</radialGradient>
</defs>
</svg>
