<svg width="15" height="14" viewBox="0 0 15 14" fill="none" xmlns="http://www.w3.org/2000/svg">
<path d="M13.6692 5.66816L10.7076 5.25247L11.8336 2.44331C12.0131 1.99531 11.5213 1.57693 11.1177 1.83404L8.58584 3.44647L7.66803 0.560852C7.59507 0.33066 7.39799 0.215698 7.20092 0.215698C7.00384 0.215698 6.80676 0.33066 6.7338 0.560852L5.81599 3.44674L3.28415 1.83431C2.88057 1.5772 2.38896 1.99558 2.56826 2.44358L3.69419 5.25274L0.732648 5.66816C0.260417 5.73439 0.148956 6.37543 0.570302 6.60158L3.21307 8.01935L1.20784 10.2685C0.91384 10.5983 1.16153 11.1012 1.56565 11.1012C1.60092 11.1012 1.63753 11.0975 1.67522 11.0891L4.59826 10.4524L4.48761 13.4826C4.47603 13.7962 4.72642 14 4.98326 14C5.12192 14 5.26299 13.9405 5.36557 13.8067L7.20119 11.4133L9.0368 13.8067C9.13938 13.9405 9.28019 14 9.41911 14C9.67596 14 9.92634 13.7962 9.91476 13.4826L9.80411 10.4524L12.7271 11.0891C13.1945 11.1904 13.5136 10.626 13.1943 10.2682L11.189 8.01908L13.8318 6.60131C14.2529 6.37543 14.1414 5.73439 13.6692 5.66816ZM9.42234 8.60708L8.0253 8.30285L8.07834 9.75105L7.20092 8.60708L6.32349 9.75105L6.37626 8.30285L4.97923 8.60708L5.93769 7.53204L4.67446 6.85439L6.0898 6.6557L5.55161 5.31304L6.7618 6.08358L7.20092 4.70431L7.63949 6.08358L8.84969 5.31304L8.31149 6.6557L9.72684 6.85439L8.46361 7.53204L9.42234 8.60708Z" fill="#012C79"/>
</svg>
