<svg width="18" height="18" viewBox="0 0 18 18" fill="none" xmlns="http://www.w3.org/2000/svg">
<path d="M14.9539 1.86597H3.44618C3.03 1.86597 2.63086 2.0313 2.33657 2.32558C2.04228 2.61987 1.87695 3.01901 1.87695 3.4352L1.87695 14.9429C1.87695 15.3591 2.04228 15.7582 2.33657 16.0525C2.63086 16.3468 3.03 16.5121 3.44618 16.5121H7.9332V11.5328H5.87359V9.18904H7.9332V7.40274C7.9332 5.37091 9.14282 4.24858 10.9955 4.24858C11.8828 4.24858 12.8106 4.40681 12.8106 4.40681V6.40104H11.7883C10.781 6.40104 10.4669 7.02612 10.4669 7.66722V9.18904H12.7154L12.3558 11.5328H10.4669V16.5121H14.9539C15.3701 16.5121 15.7692 16.3468 16.0635 16.0525C16.3578 15.7582 16.5231 15.3591 16.5231 14.9429V3.4352C16.5231 3.01901 16.3578 2.61987 16.0635 2.32558C15.7692 2.0313 15.3701 1.86597 14.9539 1.86597Z" fill="white"/>
</svg>
