<svg width="44" height="44" viewBox="0 0 44 44" fill="none" xmlns="http://www.w3.org/2000/svg">
<path d="M14.0781 28.7436C14.9065 28.7436 15.578 29.4153 15.5781 30.2436V36.2436C15.5781 36.6414 15.4199 37.0229 15.1387 37.3042L12.4766 39.9663C12.5428 40.2141 12.5781 40.4749 12.5781 40.7436C12.5781 42.4005 11.235 43.7436 9.57813 43.7436C7.92127 43.7436 6.57813 42.4005 6.57813 40.7436C6.57821 39.0868 7.92133 37.7436 9.57813 37.7436C9.84686 37.7436 10.1076 37.7789 10.3555 37.8452L12.5781 35.6225V30.2436C12.5782 29.4153 13.2498 28.7436 14.0781 28.7436ZM22.0781 28.7436C22.9065 28.7436 23.578 29.4153 23.5781 30.2436V38.145C24.4748 38.6637 25.0781 39.6333 25.0781 40.7436C25.0781 42.4005 23.735 43.7436 22.0781 43.7436C20.4213 43.7436 19.0781 42.4005 19.0781 40.7436C19.0782 39.6333 19.6815 38.6637 20.5781 38.145V30.2436C20.5782 29.4153 21.2498 28.7436 22.0781 28.7436ZM30.0781 28.7436C30.9065 28.7436 31.578 29.4153 31.5781 30.2436V35.6225L33.8008 37.8452C34.0486 37.7789 34.3094 37.7436 34.5781 37.7436C36.2349 37.7436 37.578 39.0868 37.5781 40.7436C37.5781 42.4005 36.235 43.7436 34.5781 43.7436C32.9213 43.7436 31.5781 42.4005 31.5781 40.7436C31.5781 40.4749 31.6134 40.2141 31.6797 39.9663L29.0176 37.3042C28.7363 37.0229 28.5781 36.6414 28.5781 36.2436V30.2436C28.5782 29.4153 29.2498 28.7436 30.0781 28.7436ZM12.2432 0.743608C14.3018 0.742696 15.7253 0.742109 17.0029 1.22115C19.7937 2.26766 21.0189 4.74548 21.9629 6.65572C22.2456 7.22117 22.7596 8.24918 22.9033 8.47505C22.9475 8.54893 23.0871 8.70004 23.291 8.71431C23.5572 8.74183 23.918 8.74361 24.5498 8.74361H31.6592C33.6971 8.74358 35.3406 8.74326 36.6592 8.8774C38.0203 9.01586 39.2009 9.30956 40.2451 10.0073C41.064 10.5545 41.7673 11.2577 42.3145 12.0766C43.0121 13.1208 43.3059 14.3015 43.4443 15.6626C43.5784 16.9811 43.5781 18.7898 43.5781 20.8276C43.5781 24.2671 43.5778 26.964 43.3594 29.1108C43.1366 31.3002 42.6744 33.0837 41.6396 34.6323C41.0098 35.575 40.2454 36.4177 39.3721 37.1342C38.3476 35.7756 36.7587 34.8669 34.9541 34.7553L34.5781 34.3793V30.2436C34.5781 27.7583 32.5634 25.7436 30.0781 25.7436C28.3367 25.7436 26.8262 26.733 26.0781 28.1801C25.33 26.733 23.8196 25.7436 22.0781 25.7436C20.3367 25.7436 18.8262 26.733 18.0781 28.1801C17.33 26.733 15.8196 25.7436 14.0781 25.7436C11.5928 25.7436 9.57813 27.7583 9.57813 30.2436V34.3793L9.20215 34.7553C7.40279 34.8666 5.81772 35.7704 4.79297 37.1225C4.49927 36.8946 4.21712 36.6463 3.94629 36.3754C2.15677 34.5859 1.34651 32.3057 0.958008 29.4165C0.57847 26.5935 0.5781 22.9746 0.578126 18.3579V12.062C0.578109 10.3047 0.577816 8.88723 0.678712 7.74263C0.782688 6.56323 1.0033 5.53089 1.5293 4.58833C2.20703 3.37405 3.20855 2.37149 4.42285 1.6938C5.36536 1.16783 6.39782 0.948177 7.57715 0.844194C8.7218 0.743293 10.4858 0.743591 12.2432 0.743608Z" fill="white"/>
</svg>
