<svg width="38" height="42" viewBox="0 0 38 42" fill="none" xmlns="http://www.w3.org/2000/svg">
<path fill-rule="evenodd" clip-rule="evenodd" d="M35.1978 6.39152C32.3778 6.39152 30.2177 5.13155 27.7777 3.67155C25.4377 2.29155 22.7378 0.671384 19.1178 0.751384C15.4978 0.751384 12.6376 2.41144 10.2176 3.81144C7.63761 5.29144 5.43764 6.49146 2.99764 6.33146C2.23764 6.27146 1.5578 6.79141 1.4178 7.53141C-0.402197 17.0114 0.837793 24.8115 4.15779 30.6515C7.47779 36.5115 12.7777 40.2713 18.8377 41.7113C19.0777 41.7513 19.3377 41.7513 19.5777 41.6913C26.0377 39.9713 31.2778 36.1114 34.4178 30.2714C37.5378 24.4314 38.4778 16.7915 36.6578 7.61149C36.5378 6.91149 35.9178 6.39152 35.1978 6.39152ZM19.8177 13.6515C19.4777 13.1115 18.6777 13.1115 18.3377 13.6515L17.3377 15.2113C16.2377 16.9513 14.7777 18.4114 13.0377 19.5114L11.4776 20.5114C10.9376 20.8514 10.9376 21.6514 11.4776 21.9914L13.0377 22.9914C14.7777 24.0914 16.2377 25.5514 17.3377 27.2914L18.3377 28.8515C18.6777 29.3915 19.4777 29.3915 19.8177 28.8515L20.8177 27.2914C21.9177 25.5514 23.3778 24.0914 25.1178 22.9914L26.6778 21.9914C27.2178 21.6514 27.2178 20.8514 26.6778 20.5114L25.1178 19.5114C23.3778 18.4114 21.9177 16.9513 20.8177 15.2113L19.8177 13.6515Z" fill="white"/>
</svg>
