<svg width="49" height="49" viewBox="0 0 49 49" fill="none" xmlns="http://www.w3.org/2000/svg">
<path d="M22.1426 7.74707C23.2024 7.74734 24.082 8.62669 24.082 9.68652C24.082 10.7464 23.2024 11.6267 22.1426 11.627C15.7026 11.627 10.4619 16.8666 10.4619 23.3066C10.4619 29.7466 15.7026 34.9668 22.1426 34.9668C28.5824 34.9665 33.8018 29.7465 33.8018 23.3066C33.8018 22.2266 34.6822 21.3672 35.7422 21.3672C36.8021 21.3673 37.7021 22.2267 37.7021 23.3066C37.7021 26.9066 36.4819 30.2067 34.4219 32.8467L41.0225 39.4268C41.7621 40.1867 41.7621 41.4266 41.0225 42.1865C40.2625 42.9265 39.0217 42.9265 38.2617 42.1865L31.6826 35.5869C29.0427 37.6468 25.7424 38.8671 22.1426 38.8672C13.5426 38.8672 6.58203 31.8866 6.58203 23.3066C6.58203 14.7066 13.5426 7.74707 22.1426 7.74707ZM31.082 5.74707C31.702 5.74707 32.2624 6.14656 32.4824 6.72656L33.002 8.12695C33.7217 10.0864 33.962 10.6064 34.3418 10.9863C34.7218 11.3663 35.2421 11.6071 37.2021 12.3271L38.6025 12.8467C39.1823 13.0668 39.582 13.6272 39.582 14.2471C39.5818 14.8667 39.1821 15.4264 38.6025 15.6465L37.2021 16.167C35.2422 16.887 34.7218 17.1268 34.3418 17.5068C33.9619 17.8868 33.7218 18.4076 33.002 20.3672L32.4824 21.7666C32.2624 22.3466 31.702 22.7471 31.082 22.7471C30.4621 22.7471 29.9027 22.3465 29.6826 21.7666L29.1621 20.3672C28.4423 18.4076 28.2021 17.8868 27.8223 17.5068C27.4423 17.1268 26.9218 16.887 24.9619 16.167L23.5625 15.6465C22.9827 15.4265 22.5822 14.8669 22.582 14.2471C22.582 13.6271 22.9825 13.0667 23.5625 12.8467L24.9619 12.3271C26.9219 11.6071 27.4423 11.3663 27.8223 10.9863C28.2021 10.6064 28.4423 10.0864 29.1621 8.12695L29.6826 6.72656C29.9027 6.14665 30.4621 5.74707 31.082 5.74707Z" fill="white"/>
</svg>
