<svg width="40" height="44" viewBox="0 0 40 44" fill="none" xmlns="http://www.w3.org/2000/svg">
<path d="M15.2422 0.743654C18.2171 0.743609 20.6127 0.743422 22.4961 1.01514C24.4589 1.29832 26.0824 1.90282 27.3574 3.271C28.9551 4.98543 29.4119 7.26626 29.5762 10.1587L29.5781 10.2007V11.7437H28.0781C25.5928 11.7437 23.5781 13.7584 23.5781 16.2437C23.5781 16.7696 23.6682 17.2745 23.834 17.7437H20.0781C17.5928 17.7437 15.5781 19.7584 15.5781 22.2437C15.5781 24.7289 17.5928 26.7437 20.0781 26.7437H23.834C23.6682 27.2128 23.5781 27.7177 23.5781 28.2437C23.5781 30.7289 25.5928 32.7437 28.0781 32.7437H29.5781V34.2866L29.5762 34.3286C29.4119 37.221 28.9551 39.5019 27.3574 41.2163C26.0824 42.5845 24.4589 43.189 22.4961 43.4722C20.6127 43.7439 18.2171 43.7437 15.2422 43.7437H15.0068C12.0321 43.7437 9.63632 43.7438 7.75293 43.4722C5.7902 43.189 4.16663 42.5844 2.8916 41.2163C1.63052 39.863 1.08548 38.165 0.828126 36.1108C0.577647 34.1114 0.578098 31.5589 0.578126 28.3481V16.1392C0.578098 12.9284 0.577645 10.3759 0.828126 8.37647C1.08548 6.32233 1.63052 4.62427 2.8916 3.271C4.16663 1.90292 5.7902 1.29831 7.75293 1.01514C9.63638 0.743458 12.2673 0.743609 15.2422 0.743654ZM15.0781 34.2437C13.9736 34.2437 13.0781 35.1391 13.0781 36.2437C13.0781 37.3482 13.9736 38.2437 15.0781 38.2437H15.0957C16.2003 38.2437 17.0957 37.3482 17.0957 36.2437C17.0957 35.1391 16.2003 34.2437 15.0957 34.2437H15.0781ZM32.0781 26.7437C32.476 26.7437 32.8574 26.9018 33.1387 27.1831L35.8008 29.8452C36.0486 29.7789 36.3094 29.7437 36.5781 29.7437C38.235 29.7437 39.5781 31.0868 39.5781 32.7437C39.5781 34.4005 38.235 35.7437 36.5781 35.7437C34.9213 35.7437 33.5781 34.4005 33.5781 32.7437C33.5781 32.4749 33.6134 32.2141 33.6797 31.9663L31.457 29.7437H28.0781C27.2497 29.7437 26.5781 29.0721 26.5781 28.2437C26.5781 27.4152 27.2497 26.7437 28.0781 26.7437H32.0781ZM36.5781 19.2437C38.235 19.2437 39.5781 20.5868 39.5781 22.2437C39.5781 23.9005 38.235 25.2437 36.5781 25.2437C35.4677 25.2437 34.4982 24.6404 33.9795 23.7437H20.0781C19.2497 23.7437 18.5781 23.0721 18.5781 22.2437C18.5781 21.4152 19.2497 20.7437 20.0781 20.7437H33.9795C34.4982 19.847 35.4677 19.2437 36.5781 19.2437ZM36.5781 8.74365C38.235 8.74365 39.5781 10.0868 39.5781 11.7437C39.5781 13.4005 38.235 14.7437 36.5781 14.7437C36.3094 14.7437 36.0486 14.7084 35.8008 14.6421L33.1387 17.3042C32.8574 17.5855 32.476 17.7437 32.0781 17.7437H28.0781C27.2497 17.7437 26.5781 17.0721 26.5781 16.2437C26.5781 15.4152 27.2497 14.7437 28.0781 14.7437H31.457L33.6797 12.521C33.6134 12.2732 33.5781 12.0124 33.5781 11.7437C33.5781 10.0868 34.9213 8.74365 36.5781 8.74365Z" fill="white"/>
</svg>
