<svg width="40" height="44" viewBox="0 0 40 44" fill="none" xmlns="http://www.w3.org/2000/svg">
<path fill-rule="evenodd" clip-rule="evenodd" d="M20.0761 0.743652C16.8525 0.743652 14.2381 1.89354 11.976 3.13055C11.2862 3.50776 10.6482 3.87929 10.0404 4.23323C8.56278 5.09362 7.26361 5.85013 5.83309 6.33191C4.98873 6.61627 4.23079 6.87152 3.69452 7.09334C3.18684 7.30333 2.57608 7.59456 2.14534 8.09987C1.76485 8.54623 1.57247 9.04245 1.4453 9.5128C1.32883 9.94352 1.22937 10.5261 1.13286 11.0914C-1.20292 24.7654 3.8864 37.7849 16.4675 42.8693C17.6942 43.3653 18.6302 43.7437 20.0824 43.7437C21.5346 43.7436 22.4705 43.3652 23.6971 42.8693C36.2779 37.7847 41.362 24.7649 39.0257 11.0913C38.9291 10.5259 38.8296 9.94325 38.7131 9.51248C38.5859 9.04209 38.3934 8.54581 38.0129 8.09943C37.5821 7.59414 36.9713 7.30299 36.4636 7.09306C35.9273 6.87132 35.1694 6.61622 34.3251 6.33201C32.8938 5.85019 31.5935 5.09348 30.1148 4.23295C29.5067 3.87907 28.8684 3.50763 28.1785 3.13053C25.9153 1.89356 23.2998 0.743652 20.0761 0.743652ZM16.0785 13.7437C14.8357 13.7437 13.7323 14.5389 13.3393 15.718L9.65551 26.7693C9.39354 27.5552 9.81828 28.4047 10.6042 28.6667C11.3901 28.9286 12.2396 28.5039 12.5016 27.718L13.493 24.7437H18.6641L19.6555 27.718C19.9175 28.5039 20.767 28.9286 21.5529 28.6667C22.3388 28.4047 22.7635 27.5552 22.5016 26.7693L18.8178 15.718C18.4248 14.5389 17.3214 13.7437 16.0785 13.7437ZM16.0785 16.9871L17.6641 21.7437H14.493L16.0785 16.9871ZM28.5785 15.2437C28.5785 14.4152 27.907 13.7437 27.0785 13.7437C26.2501 13.7437 25.5785 14.4152 25.5785 15.2437V27.2437C25.5785 28.0721 26.2501 28.7437 27.0785 28.7437C27.907 28.7437 28.5785 28.0721 28.5785 27.2437V15.2437Z" fill="white"/>
</svg>
