<svg width="44" height="44" viewBox="0 0 44 44" fill="none" xmlns="http://www.w3.org/2000/svg">
<path fill-rule="evenodd" clip-rule="evenodd" d="M17.0781 43.7434C19.0886 43.7434 20.8859 42.8306 22.0782 41.3969C23.2705 42.8305 25.0677 43.7432 27.0781 43.7432C30.1951 43.7432 32.7996 41.5492 33.4317 38.6213C36.9278 37.9841 39.5781 34.9231 39.5781 31.2432C39.5781 30.4779 39.4631 29.7383 39.2493 29.0413C41.8064 27.8465 43.5781 25.2528 43.5781 22.2432C43.5781 19.2335 41.8064 16.6398 39.2493 15.4451C39.4631 14.7481 39.5781 14.0084 39.5781 13.2432C39.5781 9.56318 36.9278 6.50223 33.4317 5.865C32.7996 2.93712 30.1951 0.743164 27.0781 0.743164C25.0676 0.743164 23.2704 1.65599 22.0781 3.08975C20.8858 1.65607 19.0885 0.743354 17.0781 0.743354C13.9612 0.743354 11.3566 2.9373 10.7245 5.86518C7.22849 6.50242 4.57812 9.56338 4.57812 13.2434C4.57812 14.0086 4.69315 14.7483 4.90697 15.4453C2.34988 16.64 0.578125 19.2337 0.578125 22.2434C0.578125 25.253 2.34988 27.8467 4.90697 29.0415C4.69315 29.7385 4.57812 30.4781 4.57812 31.2434C4.57812 34.9233 7.22849 37.9843 10.7245 38.6215C11.3566 41.5494 13.9612 43.7434 17.0781 43.7434ZM18.0785 13.7432C16.8357 13.7432 15.7323 14.5384 15.3393 15.7175L11.6555 26.7688C11.3935 27.5547 11.8183 28.4042 12.6042 28.6662C13.3901 28.9282 14.2396 28.5034 14.5016 27.7175L15.493 24.7432H20.6641L21.6555 27.7175C21.9175 28.5034 22.767 28.9282 23.5529 28.6662C24.3388 28.4042 24.7635 27.5547 24.5016 26.7688L20.8178 15.7175C20.4248 14.5384 19.3214 13.7432 18.0785 13.7432ZM18.0785 16.9866L19.6641 21.7432H16.493L18.0785 16.9866ZM30.5785 15.2432C30.5785 14.4147 29.907 13.7432 29.0785 13.7432C28.2501 13.7432 27.5785 14.4147 27.5785 15.2432V27.2432C27.5785 28.0716 28.2501 28.7432 29.0785 28.7432C29.907 28.7432 30.5785 28.0716 30.5785 27.2432V15.2432Z" fill="white"/>
</svg>
