<svg width="44" height="44" viewBox="0 0 44 44" fill="none" xmlns="http://www.w3.org/2000/svg">
<path d="M24.1094 8.74365C24.0887 8.90802 24.0781 9.07494 24.0781 9.24365C24.0781 10.9174 25.1207 12.4138 26.6904 12.9946L28.084 13.5112C29.082 13.8805 29.7178 14.1269 30.0391 14.2749C30.187 14.5962 30.4413 15.2398 30.8105 16.2378L31.3272 17.6313C31.908 19.2011 33.4044 20.2437 35.0781 20.2437C36.7519 20.2437 38.2482 19.2011 38.8291 17.6313L39.3457 16.2378C39.715 15.2398 39.9614 14.6196 40.1094 14.2983C40.1577 14.2761 40.2134 14.2508 40.2764 14.2231C40.887 15.4415 41.1977 16.8184 41.3662 18.4175C41.578 20.4263 41.5781 23.1693 41.5781 26.3745C41.5782 30.0344 41.5786 32.9617 41.2119 35.2583C40.8292 37.6555 40.0186 39.5688 38.2617 41.0483C36.5421 42.4963 34.3823 43.1339 31.6709 43.4409C28.9996 43.7434 25.5712 43.7437 21.1758 43.7437C16.7804 43.7437 13.1567 43.7434 10.4854 43.4409C7.77391 43.1339 5.61416 42.4963 3.89453 41.0483C2.13763 39.5688 1.32706 37.6555 0.944337 35.2583C0.577686 32.9617 0.578077 30.0344 0.578126 26.3745C0.578077 22.7147 0.577688 19.5256 0.944337 17.229C1.32706 14.8318 2.13763 12.9185 3.89453 11.439C5.61416 9.99099 7.77391 9.35337 10.4854 9.04639C13.1567 8.74394 16.585 8.74364 20.9805 8.74365H24.1094ZM23.5527 18.8208C22.7669 18.559 21.9172 18.9842 21.6553 19.77L17.6553 31.77C17.3935 32.5558 17.8187 33.4055 18.6045 33.6675C19.3903 33.9292 20.24 33.504 20.502 32.7183L24.502 20.7183C24.7638 19.9324 24.3386 19.0827 23.5527 18.8208ZM14.2139 21.2642C13.673 20.637 12.726 20.5671 12.0986 21.1079L9.58301 23.2759C9.12208 23.673 8.66814 24.0644 8.3418 24.4331C7.98085 24.8409 7.57813 25.4346 7.57813 26.2437C7.57813 27.0527 7.98086 27.6464 8.3418 28.0542C8.66815 28.4229 9.12208 28.8143 9.58301 29.2114L12.0986 31.3794C12.726 31.9202 13.673 31.8504 14.2139 31.2231C14.7546 30.5957 14.6848 29.6488 14.0576 29.1079L10.7598 26.2437L14.0576 23.3794C14.6848 22.8385 14.7546 21.8916 14.2139 21.2642ZM30.0576 21.1079C29.4302 20.5671 28.4833 20.637 27.9424 21.2642C27.4016 21.8916 27.4714 22.8385 28.0986 23.3794L31.3965 26.2437L28.0986 29.1079C27.4714 29.6488 27.4016 30.5957 27.9424 31.2231C28.4833 31.8504 29.4302 31.9202 30.0576 31.3794L32.5732 29.2114C33.0342 28.8143 33.4881 28.4229 33.8145 28.0542C34.1754 27.6464 34.5781 27.0527 34.5781 26.2437C34.5781 25.4346 34.1754 24.8409 33.8145 24.4331C33.4881 24.0644 33.0342 23.673 32.5732 23.2759L30.0576 21.1079ZM35.0781 0.743652C35.7058 0.743653 36.2675 1.13449 36.4854 1.72314L37.001 3.1167C37.725 5.07339 37.9556 5.60554 38.3359 5.98584C38.7162 6.36614 39.2484 6.59676 41.2051 7.3208L42.5986 7.83643C43.1873 8.05425 43.5781 8.61599 43.5781 9.24365C43.5781 9.87131 43.1873 10.4331 42.5986 10.6509L41.2051 11.1665C39.2484 11.8905 38.7162 12.1212 38.3359 12.5015C37.9556 12.8818 37.725 13.4139 37.001 15.3706L36.4854 16.7642C36.2675 17.3528 35.7058 17.7437 35.0781 17.7437C34.4505 17.7437 33.8887 17.3528 33.6709 16.7642L33.1553 15.3706C32.4312 13.4139 32.2006 12.8818 31.8203 12.5015C31.44 12.1212 30.9079 11.8905 28.9512 11.1665L27.5576 10.6509C26.969 10.4331 26.5781 9.87131 26.5781 9.24365C26.5781 8.61599 26.969 8.05425 27.5576 7.83643L28.9512 7.3208C30.9079 6.59676 31.44 6.36614 31.8203 5.98584C32.2006 5.60554 32.4312 5.07339 33.1553 3.1167L33.6709 1.72314C33.8887 1.13449 34.4505 0.743652 35.0781 0.743652Z" fill="white"/>
</svg>
