<svg width="44" height="40" viewBox="0 0 44 40" fill="none" xmlns="http://www.w3.org/2000/svg">
<path d="M6.05664 0.743706C7.22114 0.75147 8.60534 1.01863 10.1904 1.32476L10.3154 1.34917C11.9214 1.65918 13.3881 2.04986 14.7129 2.4898C14.3011 2.83337 13.7476 3.37694 13.4775 3.64703C13.1246 3.99998 12.8409 4.37074 12.6113 4.74371C10.126 4.74371 7.57422 6.75842 7.57422 9.24371C7.57422 10.3962 8.00726 11.4476 8.71973 12.2437C8.00726 13.0398 7.57422 14.0913 7.57422 15.2437C7.57422 17.729 10.1261 19.7437 12.6113 19.7437C12.8409 20.1167 13.1246 20.4874 13.4775 20.8404C13.8305 21.1933 14.2013 21.477 14.5742 21.7066C14.5742 24.1919 16.5889 26.7437 19.0742 26.7437C19.6002 26.7437 20.1051 26.6537 20.5742 26.4878L20.5742 39.5035C20.5741 39.6797 20.3934 39.7962 20.2354 39.7193C19.6372 39.4277 18.8546 39.0003 17.877 38.4654L17.8398 38.4449C15.9281 37.399 13.2404 36.3326 9.75489 35.6597L9.6709 35.6441C7.70507 35.2646 6.11615 34.958 4.90918 34.5943C3.69456 34.2283 2.58873 33.7298 1.83301 32.7818C1.10678 31.8705 0.826711 30.7736 0.698246 29.5796C0.573744 28.4221 0.574189 26.9585 0.574223 25.1744L0.574222 10.3492C0.574143 8.41798 0.574258 6.79316 0.772464 5.5025C0.985349 4.11629 1.45469 2.90341 2.54004 1.9605C3.59569 1.04349 4.75737 0.735066 6.05664 0.743706ZM38.0918 0.743705C39.3911 0.735064 40.5528 1.0435 41.6084 1.9605C42.6938 2.90341 43.1631 4.11629 43.376 5.50249C43.5742 6.79318 43.5743 8.41793 43.5742 10.3492L43.5742 25.1744C43.5743 26.9585 43.5747 28.4221 43.4502 29.5796C43.3217 30.7736 43.0417 31.8705 42.3154 32.7818C41.5597 33.7298 40.4539 34.2283 39.2393 34.5943C38.0323 34.958 36.4433 35.2647 34.4775 35.6441L34.3936 35.6597C30.908 36.3326 28.2203 37.399 26.3086 38.4449L26.2705 38.4654C25.2931 39.0001 24.5112 39.4278 23.9131 39.7193C23.7551 39.7962 23.5744 39.6797 23.5742 39.5035L23.5742 26.4878C24.0434 26.6537 24.5483 26.7437 25.0742 26.7437C27.5595 26.7437 29.5742 24.1919 29.5742 21.7066C29.947 21.4771 30.3171 21.1931 30.6699 20.8404C31.0229 20.4874 31.3076 20.1167 31.5371 19.7437C34.0224 19.7437 36.5742 17.729 36.5742 15.2437C36.5742 14.0912 36.1412 13.0398 35.4287 12.2437C36.1412 11.4476 36.5742 10.3962 36.5742 9.2437C36.5742 6.75842 34.0224 4.7437 31.5371 4.7437C31.3076 4.37074 31.0239 3.99998 30.6709 3.64703C30.4028 3.3789 29.835 2.84058 29.4141 2.49663C30.7446 2.05373 32.2182 1.66089 33.833 1.34917L33.958 1.32476C35.5431 1.01863 36.9273 0.751471 38.0918 0.743705ZM25.0781 0.743705C25.9066 0.743705 26.5781 1.41528 26.5781 2.2437L26.5781 4.84527C27.2574 4.94888 27.9652 5.18156 28.5527 5.7691C29.1403 6.35663 29.3729 7.06445 29.4766 7.7437L32.0781 7.7437C32.9066 7.7437 33.5781 8.41528 33.5781 9.2437C33.5781 10.0721 32.9066 10.7437 32.0781 10.7437L29.5781 10.7437L29.5781 13.7437L32.0781 13.7437C32.9066 13.7437 33.5781 14.4153 33.5781 15.2437C33.5781 16.0721 32.9066 16.7437 32.0781 16.7437L29.4766 16.7437C29.373 17.423 29.1403 18.1308 28.5527 18.7183C27.9652 19.3058 27.2574 19.5385 26.5781 19.6421L26.5781 22.2437C26.5781 23.0721 25.9066 23.7437 25.0781 23.7437C24.2497 23.7437 23.5781 23.0721 23.5781 22.2437L23.5781 19.7437L20.5781 19.7437L20.5781 22.2437C20.5781 23.0721 19.9066 23.7437 19.0781 23.7437C18.2497 23.7437 17.5781 23.0721 17.5781 22.2437L17.5781 19.6421C16.8989 19.5385 16.191 19.3058 15.6035 18.7183C15.016 18.1308 14.7833 17.423 14.6797 16.7437L12.0781 16.7437C11.2497 16.7437 10.5781 16.0721 10.5781 15.2437C10.5781 14.4153 11.2497 13.7437 12.0781 13.7437L14.5781 13.7437L14.5781 10.7437L12.0781 10.7437C11.2497 10.7437 10.5781 10.0721 10.5781 9.24371C10.5781 8.41528 11.2497 7.74371 12.0781 7.74371L14.6797 7.74371C14.7833 7.06445 15.016 6.35663 15.6035 5.7691C16.191 5.18157 16.8989 4.94888 17.5781 4.84527L17.5781 2.24371C17.5781 1.41528 18.2497 0.743705 19.0781 0.743705C19.9066 0.743705 20.5781 1.41528 20.5781 2.24371L20.5781 4.74371L23.5781 4.74371L23.5781 2.24371C23.5781 1.41528 24.2497 0.743705 25.0781 0.743705Z" fill="white"/>
</svg>
