<svg width="20" height="20" viewBox="0 0 20 20" fill="none" xmlns="http://www.w3.org/2000/svg">
<path d="M10.1615 0.315674C15.4307 0.315674 19.7 4.5849 19.7 9.85414C19.7 15.1234 15.4307 19.3926 10.1615 19.3926C4.89228 19.3926 0.623047 15.1234 0.623047 9.85414C0.623047 4.5849 4.89228 0.315674 10.1615 0.315674ZM5.69997 11.5464H10.1615V14.2734C10.1615 14.6849 10.6615 14.8926 10.95 14.6003L15.3461 10.1811C15.5269 10.0003 15.5269 9.71183 15.3461 9.53106L10.95 5.10798C10.6577 4.81567 10.1615 5.02337 10.1615 5.43491V8.16183H5.69997C5.44612 8.16183 5.23843 8.36952 5.23843 8.62337V11.0849C5.23843 11.3388 5.44612 11.5464 5.69997 11.5464Z" fill="white"/>
</svg>
