<svg width="1440" height="2106" viewBox="0 0 1440 2106" fill="none" xmlns="http://www.w3.org/2000/svg">
<g clip-path="url(#clip0_1116_1135)">
<rect width="1440" height="2106" fill="#090014"/>
<g filter="url(#filter0_f_1116_1135)">
<ellipse cx="710" cy="789" rx="370" ry="1" fill="white"/>
</g>
<g filter="url(#filter1_f_1116_1135)">
<ellipse cx="721" cy="788.5" rx="169" ry="6.5" fill="white"/>
</g>
<g filter="url(#filter2_f_1116_1135)">
<ellipse cx="720.5" cy="842.5" rx="291.5" ry="81.5" fill="url(#paint0_linear_1116_1135)"/>
</g>
<g filter="url(#filter3_f_1116_1135)">
<ellipse cx="733" cy="810" rx="597" ry="189" fill="#662ADB"/>
</g>
<circle cx="532" cy="701" r="1" fill="#D4B2FF"/>
<circle cx="612" cy="741" r="1" fill="#D4B2FF"/>
<circle cx="692" cy="1012" r="1" fill="#D4B2FF"/>
<circle cx="784" cy="993" r="1" fill="#D4B2FF"/>
<circle cx="826" cy="854" r="1" fill="#D4B2FF"/>
<circle cx="857" cy="725" r="1" fill="#D4B2FF"/>
<circle cx="807" cy="756" r="1" fill="#D4B2FF"/>
<circle cx="817" cy="878" r="1" fill="#D4B2FF"/>
<circle cx="707" cy="901" r="1" fill="#D4B2FF"/>
<circle cx="577" cy="944" r="1" fill="#D4B2FF"/>
<circle cx="642.38" cy="971.688" r="1.5" transform="rotate(166.309 642.38 971.688)" fill="#D4B2FF"/>
<circle cx="652.309" cy="984.493" r="1.5" transform="rotate(166.309 652.309 984.493)" fill="#D4B2FF"/>
<circle cx="896.673" cy="842.624" r="1.5" transform="rotate(166.309 896.673 842.624)" fill="#D4B2FF"/>
<circle cx="856.438" cy="757.736" r="1.5" transform="rotate(166.309 856.438 757.736)" fill="#D4B2FF"/>
<circle cx="711.446" cy="749.828" r="1.5" transform="rotate(166.309 711.446 749.828)" fill="#D4B2FF"/>
<circle cx="578.774" cy="750.241" r="1.5" transform="rotate(166.309 578.774 750.241)" fill="#D4B2FF"/>
<circle cx="620.729" cy="791.484" r="1.5" transform="rotate(166.309 620.729 791.484)" fill="#D4B2FF"/>
<circle cx="736.895" cy="752.892" r="1.5" transform="rotate(166.309 736.895 752.892)" fill="#D4B2FF"/>
<circle cx="785.277" cy="854.322" r="1.5" transform="rotate(166.309 785.277 854.322)" fill="#D4B2FF"/>
<circle cx="857.824" cy="970.451" r="1.5" transform="rotate(166.309 857.824 970.451)" fill="#D4B2FF"/>
<g filter="url(#filter4_f_1116_1135)">
<path d="M717 783L957 791L717 799L477 791L717 783Z" fill="url(#paint1_radial_1116_1135)"/>
</g>
<g filter="url(#filter5_f_1116_1135)">
<path d="M709 783L813 791L709 799L605 791L709 783Z" fill="url(#paint2_radial_1116_1135)"/>
</g>
<g filter="url(#filter6_f_1116_1135)">
<ellipse cx="692.5" cy="489.5" rx="291.5" ry="81.5" fill="url(#paint3_linear_1116_1135)"/>
</g>
<g filter="url(#filter7_f_1116_1135)">
<ellipse cx="692" cy="625" rx="490" ry="189" fill="#662ADB"/>
</g>
<circle cx="504" cy="348" r="1" fill="#D4B2FF"/>
<circle cx="584" cy="388" r="1" fill="#D4B2FF"/>
<circle cx="664" cy="659" r="1" fill="#D4B2FF"/>
<circle cx="756" cy="640" r="1" fill="#D4B2FF"/>
<circle cx="798" cy="501" r="1" fill="#D4B2FF"/>
<circle cx="829" cy="372" r="1" fill="#D4B2FF"/>
<circle cx="779" cy="403" r="1" fill="#D4B2FF"/>
<circle cx="789" cy="525" r="1" fill="#D4B2FF"/>
<circle cx="679" cy="548" r="1" fill="#D4B2FF"/>
<circle cx="549" cy="591" r="1" fill="#D4B2FF"/>
<circle cx="614.38" cy="618.688" r="1.5" transform="rotate(166.309 614.38 618.688)" fill="#D4B2FF"/>
<circle cx="624.309" cy="631.493" r="1.5" transform="rotate(166.309 624.309 631.493)" fill="#D4B2FF"/>
<circle cx="868.673" cy="489.624" r="1.5" transform="rotate(166.309 868.673 489.624)" fill="#D4B2FF"/>
<circle cx="828.438" cy="404.736" r="1.5" transform="rotate(166.309 828.438 404.736)" fill="#D4B2FF"/>
<circle cx="683.446" cy="396.828" r="1.5" transform="rotate(166.309 683.446 396.828)" fill="#D4B2FF"/>
<circle cx="550.774" cy="397.241" r="1.5" transform="rotate(166.309 550.774 397.241)" fill="#D4B2FF"/>
<circle cx="592.729" cy="438.484" r="1.5" transform="rotate(166.309 592.729 438.484)" fill="#D4B2FF"/>
<circle cx="708.895" cy="399.892" r="1.5" transform="rotate(166.309 708.895 399.892)" fill="#D4B2FF"/>
<circle cx="757.277" cy="501.322" r="1.5" transform="rotate(166.309 757.277 501.322)" fill="#D4B2FF"/>
<circle cx="829.824" cy="617.451" r="1.5" transform="rotate(166.309 829.824 617.451)" fill="#D4B2FF"/>
<circle cx="1" cy="1" r="1" transform="matrix(-1 0 0 1 905.485 308)" fill="#D4B2FF"/>
<circle cx="1" cy="1" r="1" transform="matrix(-1 0 0 1 825.485 348)" fill="#D4B2FF"/>
<circle cx="1" cy="1" r="1" transform="matrix(-1 0 0 1 745.485 619)" fill="#D4B2FF"/>
<circle cx="1" cy="1" r="1" transform="matrix(-1 0 0 1 653.485 600)" fill="#D4B2FF"/>
<circle cx="1" cy="1" r="1" transform="matrix(-1 0 0 1 611.485 461)" fill="#D4B2FF"/>
<circle cx="1" cy="1" r="1" transform="matrix(-1 0 0 1 580.485 332)" fill="#D4B2FF"/>
<circle cx="1" cy="1" r="1" transform="matrix(-1 0 0 1 630.485 363)" fill="#D4B2FF"/>
<circle cx="1" cy="1" r="1" transform="matrix(-1 0 0 1 620.485 485)" fill="#D4B2FF"/>
<circle cx="1" cy="1" r="1" transform="matrix(-1 0 0 1 730.485 508)" fill="#D4B2FF"/>
<circle cx="1" cy="1" r="1" transform="matrix(-1 0 0 1 860.485 551)" fill="#D4B2FF"/>
<circle cx="1.5" cy="1.5" r="1.5" transform="matrix(0.971586 0.236688 0.236688 -0.971586 792.293 580.79)" fill="#D4B2FF"/>
<circle cx="1.5" cy="1.5" r="1.5" transform="matrix(0.971586 0.236688 0.236688 -0.971586 782.364 593.596)" fill="#D4B2FF"/>
<circle cx="1.5" cy="1.5" r="1.5" transform="matrix(0.971586 0.236688 0.236688 -0.971586 538 451.727)" fill="#D4B2FF"/>
<circle cx="1.5" cy="1.5" r="1.5" transform="matrix(0.971586 0.236688 0.236688 -0.971586 578.235 366.838)" fill="#D4B2FF"/>
<circle cx="1.5" cy="1.5" r="1.5" transform="matrix(0.971586 0.236688 0.236688 -0.971586 723.227 358.931)" fill="#D4B2FF"/>
<circle cx="1.5" cy="1.5" r="1.5" transform="matrix(0.971586 0.236688 0.236688 -0.971586 855.898 359.344)" fill="#D4B2FF"/>
<circle cx="1.5" cy="1.5" r="1.5" transform="matrix(0.971586 0.236688 0.236688 -0.971586 813.944 400.586)" fill="#D4B2FF"/>
<circle cx="1.5" cy="1.5" r="1.5" transform="matrix(0.971586 0.236688 0.236688 -0.971586 697.778 361.994)" fill="#D4B2FF"/>
<circle cx="1.5" cy="1.5" r="1.5" transform="matrix(0.971586 0.236688 0.236688 -0.971586 649.396 463.425)" fill="#D4B2FF"/>
<circle cx="1.5" cy="1.5" r="1.5" transform="matrix(0.971586 0.236688 0.236688 -0.971586 576.849 579.554)" fill="#D4B2FF"/>
<g filter="url(#filter8_f_1116_1135)">
<path d="M1314 248.003H1353V249.003H1314V289.005H1313V249.003H1273V248.003H1313V209.001H1314V248.003Z" fill="#9C4FFF"/>
</g>
<path d="M1314 248.003H1353V249.003H1314V289.005H1313V249.003H1273V248.003H1313V209.001H1314V248.003Z" fill="url(#paint4_radial_1116_1135)"/>
<g filter="url(#filter9_f_1116_1135)">
<path d="M81.002 447.003H120.004V448.003H81.002V488.005H80.002V448.003H40V447.003H80.002V408.001H81.002V447.003Z" fill="#9C4FFF"/>
</g>
<path d="M81.002 447.003H120.004V448.003H81.002V488.005H80.002V448.003H40V447.003H80.002V408.001H81.002V447.003Z" fill="url(#paint5_radial_1116_1135)"/>
</g>
<defs>
<filter id="filter0_f_1116_1135" x="326" y="774" width="768" height="30" filterUnits="userSpaceOnUse" color-interpolation-filters="sRGB">
<feFlood flood-opacity="0" result="BackgroundImageFix"/>
<feBlend mode="normal" in="SourceGraphic" in2="BackgroundImageFix" result="shape"/>
<feGaussianBlur stdDeviation="7" result="effect1_foregroundBlur_1116_1135"/>
</filter>
<filter id="filter1_f_1116_1135" x="539" y="769" width="364" height="39" filterUnits="userSpaceOnUse" color-interpolation-filters="sRGB">
<feFlood flood-opacity="0" result="BackgroundImageFix"/>
<feBlend mode="normal" in="SourceGraphic" in2="BackgroundImageFix" result="shape"/>
<feGaussianBlur stdDeviation="6.5" result="effect1_foregroundBlur_1116_1135"/>
</filter>
<filter id="filter2_f_1116_1135" x="289" y="621" width="863" height="443" filterUnits="userSpaceOnUse" color-interpolation-filters="sRGB">
<feFlood flood-opacity="0" result="BackgroundImageFix"/>
<feBlend mode="normal" in="SourceGraphic" in2="BackgroundImageFix" result="shape"/>
<feGaussianBlur stdDeviation="70" result="effect1_foregroundBlur_1116_1135"/>
</filter>
<filter id="filter3_f_1116_1135" x="-204" y="281" width="1874" height="1058" filterUnits="userSpaceOnUse" color-interpolation-filters="sRGB">
<feFlood flood-opacity="0" result="BackgroundImageFix"/>
<feBlend mode="normal" in="SourceGraphic" in2="BackgroundImageFix" result="shape"/>
<feGaussianBlur stdDeviation="170" result="effect1_foregroundBlur_1116_1135"/>
</filter>
<filter id="filter4_f_1116_1135" x="445" y="751" width="544" height="80" filterUnits="userSpaceOnUse" color-interpolation-filters="sRGB">
<feFlood flood-opacity="0" result="BackgroundImageFix"/>
<feBlend mode="normal" in="SourceGraphic" in2="BackgroundImageFix" result="shape"/>
<feGaussianBlur stdDeviation="16" result="effect1_foregroundBlur_1116_1135"/>
</filter>
<filter id="filter5_f_1116_1135" x="602" y="780" width="214" height="22" filterUnits="userSpaceOnUse" color-interpolation-filters="sRGB">
<feFlood flood-opacity="0" result="BackgroundImageFix"/>
<feBlend mode="normal" in="SourceGraphic" in2="BackgroundImageFix" result="shape"/>
<feGaussianBlur stdDeviation="1.5" result="effect1_foregroundBlur_1116_1135"/>
</filter>
<filter id="filter6_f_1116_1135" x="261" y="268" width="863" height="443" filterUnits="userSpaceOnUse" color-interpolation-filters="sRGB">
<feFlood flood-opacity="0" result="BackgroundImageFix"/>
<feBlend mode="normal" in="SourceGraphic" in2="BackgroundImageFix" result="shape"/>
<feGaussianBlur stdDeviation="70" result="effect1_foregroundBlur_1116_1135"/>
</filter>
<filter id="filter7_f_1116_1135" x="-138" y="96" width="1660" height="1058" filterUnits="userSpaceOnUse" color-interpolation-filters="sRGB">
<feFlood flood-opacity="0" result="BackgroundImageFix"/>
<feBlend mode="normal" in="SourceGraphic" in2="BackgroundImageFix" result="shape"/>
<feGaussianBlur stdDeviation="170" result="effect1_foregroundBlur_1116_1135"/>
</filter>
<filter id="filter8_f_1116_1135" x="1267.67" y="203.667" width="90.6711" height="90.6711" filterUnits="userSpaceOnUse" color-interpolation-filters="sRGB">
<feFlood flood-opacity="0" result="BackgroundImageFix"/>
<feBlend mode="normal" in="SourceGraphic" in2="BackgroundImageFix" result="shape"/>
<feGaussianBlur stdDeviation="2.6668" result="effect1_foregroundBlur_1116_1135"/>
</filter>
<filter id="filter9_f_1116_1135" x="34.6664" y="402.667" width="90.6711" height="90.6711" filterUnits="userSpaceOnUse" color-interpolation-filters="sRGB">
<feFlood flood-opacity="0" result="BackgroundImageFix"/>
<feBlend mode="normal" in="SourceGraphic" in2="BackgroundImageFix" result="shape"/>
<feGaussianBlur stdDeviation="2.6668" result="effect1_foregroundBlur_1116_1135"/>
</filter>
<linearGradient id="paint0_linear_1116_1135" x1="720.5" y1="761" x2="720.5" y2="924" gradientUnits="userSpaceOnUse">
<stop stop-color="#8639E9"/>
<stop offset="1" stop-color="#6505E0"/>
</linearGradient>
<radialGradient id="paint1_radial_1116_1135" cx="0" cy="0" r="1" gradientUnits="userSpaceOnUse" gradientTransform="translate(717 791) scale(240 8)">
<stop stop-color="white"/>
<stop offset="0.321667" stop-color="#FF90FF"/>
<stop offset="0.576667" stop-color="#852AFF"/>
</radialGradient>
<radialGradient id="paint2_radial_1116_1135" cx="0" cy="0" r="1" gradientUnits="userSpaceOnUse" gradientTransform="translate(709 791) scale(104 8)">
<stop stop-color="white"/>
<stop offset="0.321667" stop-color="#FF90FF"/>
<stop offset="0.576667" stop-color="#852AFF"/>
</radialGradient>
<linearGradient id="paint3_linear_1116_1135" x1="692.5" y1="408" x2="692.5" y2="571" gradientUnits="userSpaceOnUse">
<stop stop-color="#9889F4"/>
<stop offset="1" stop-color="#662ADB"/>
</linearGradient>
<radialGradient id="paint4_radial_1116_1135" cx="0" cy="0" r="1" gradientUnits="userSpaceOnUse" gradientTransform="translate(1313 249.003) rotate(90) scale(40.002)">
<stop stop-color="#AB82E0"/>
<stop offset="1" stop-color="#9C4FFF" stop-opacity="0"/>
</radialGradient>
<radialGradient id="paint5_radial_1116_1135" cx="0" cy="0" r="1" gradientUnits="userSpaceOnUse" gradientTransform="translate(80.002 448.003) rotate(90) scale(40.002)">
<stop stop-color="#AB82E0"/>
<stop offset="1" stop-color="#9C4FFF" stop-opacity="0"/>
</radialGradient>
<clipPath id="clip0_1116_1135">
<rect width="1440" height="2106" fill="white"/>
</clipPath>
</defs>
</svg>
