<svg width="147" height="48" viewBox="0 0 147 48" fill="none" xmlns="http://www.w3.org/2000/svg">
<path d="M16.7101 8.93296V10.4015L17.9242 12.262L17.0781 12.6816C16.9062 12.4374 16.7308 12.2036 16.5485 11.9766C14.7602 9.73428 12.2771 8.37238 9.64965 8.35863C9.63245 8.35863 9.6187 8.35863 9.6015 8.35863C4.42908 8.35863 0.240234 12.4133 0.240234 18.8307C0.240234 24.8217 4.0267 29.4817 9.44674 29.4817C12.37 29.4817 14.9872 28.2264 16.6517 25.6436V36.7623H20.5001V8.92952H16.7101V8.93296ZM10.3994 25.4304C6.82957 25.4304 4.24336 22.6688 4.24336 18.903C4.24336 15.1027 6.82957 12.3755 10.3994 12.3755C13.9107 12.3755 16.7101 15.0305 16.7101 18.8686C16.7101 22.7066 13.9692 25.4304 10.3994 25.4304Z" fill="white"/>
<path d="M35.3362 8.35863C29.2077 8.35863 24.8984 12.7332 24.8984 18.9408C24.8984 25.145 29.2077 29.4851 35.3362 29.4851C41.4647 29.4851 45.7429 25.145 45.7429 18.9408C45.7429 12.7366 41.4647 8.35863 35.3362 8.35863ZM35.3362 25.4682C31.5806 25.4682 28.9325 22.741 28.9325 18.9408C28.9325 15.1027 31.5806 12.379 35.3362 12.379C39.1226 12.379 41.7398 15.1062 41.7398 18.9408C41.7432 22.741 39.1261 25.4682 35.3362 25.4682Z" fill="white"/>
<path d="M76.3794 8.93298C74.7183 13.7409 72.9919 18.5453 71.2999 23.3497H71.207C69.4531 18.5419 67.6372 13.7374 65.8798 8.93298H62.3375C60.5836 13.7409 58.7952 18.5453 57.0413 23.3497H56.9175C55.222 18.5419 53.499 13.7374 51.807 8.93298H47.4668L54.5789 28.873H58.95C61.1682 23.0987 62.396 19.7628 64.0605 15.1371H64.1224C67.0182 23.422 67.448 24.354 69.1091 28.873H73.6041L80.6852 8.93298H76.3794Z" fill="white"/>
<path d="M99.6231 22.6344V15.3194C99.6231 10.6938 96.1118 8.36208 91.5859 8.36208C87.9851 8.36208 84.2881 9.9028 83.0569 13.9575L86.6886 15.3194C87.397 12.9877 89.2129 11.839 91.493 11.839C94.0173 11.839 95.6819 13.2731 95.6819 14.8861C95.6819 17.0011 92.7277 17.1456 89.3711 17.8265C85.6775 18.6141 82.3828 19.9416 82.3828 23.8175C82.3828 27.6555 85.5846 29.4851 89.1579 29.4851C92.2978 29.4851 94.7292 28.0132 95.902 25.7915H95.9948C95.9948 26.9023 96.0877 27.8722 96.4247 28.8764H100.273C99.8707 27.2978 99.6231 25.8981 99.6231 22.6344ZM95.7128 21.2347C95.7128 23.4598 93.5255 26.1836 90.0177 26.1836C88.0161 26.1836 86.5682 25.286 86.5682 23.7452C86.5682 21.5924 89.433 20.9836 91.2488 20.5881C93.3742 20.1926 94.4507 19.8694 95.7128 19.2606V21.2347Z" fill="white"/>
<path d="M106.953 23.4254C105.474 23.4254 104.273 24.6807 104.273 26.2214C104.273 27.8378 105.474 29.1274 106.953 29.1274C108.4 29.1274 109.57 27.8378 109.57 26.2214C109.57 24.6772 108.397 23.4254 106.953 23.4254Z" fill="white"/>
<path d="M127.767 0.899185H123.117L111.785 28.8729H116.063C117.171 26.1836 118.313 23.5286 119.42 20.8392H131.337L134.755 28.8729H139.064L127.767 0.899185ZM121.208 16.5025C122.746 12.7366 124.348 8.86417 125.366 6.31579H125.459C126.721 9.57951 128.169 13.0943 129.552 16.5025H121.208Z" fill="white"/>
<path d="M142.234 8.93296V28.8729H146.051V8.93296H142.234ZM144.174 0.899185C142.664 0.899185 141.525 2.15447 141.525 3.62641C141.525 5.20496 142.664 6.46024 144.174 6.46024C145.621 6.46024 146.76 5.20496 146.76 3.62641C146.76 2.15447 145.621 0.899185 144.174 0.899185Z" fill="white"/>
<path d="M0.755859 43.4617C0.755859 41.9588 1.89076 40.7758 3.34894 40.7758C4.08835 40.7758 4.5939 41.0131 4.88623 41.2538V41.9107C4.61454 41.6596 4.16058 41.3742 3.42805 41.3742C2.29314 41.3742 1.40585 42.2855 1.40585 43.4651C1.40585 44.6448 2.30002 45.5561 3.42805 45.5561C4.16058 45.5561 4.62142 45.2707 4.88623 45.0196V45.6765C4.5939 45.9207 4.08835 46.1545 3.34894 46.1545C1.89076 46.1477 0.755859 44.9646 0.755859 43.4617Z" fill="white"/>
<path d="M9.24018 42.2821L6.98413 47.7675H6.31006L6.99789 46.0823L5.35742 42.2821H6.05213C6.9463 44.3593 7.20079 45.0059 7.3246 45.4908C7.4484 45.0059 7.68227 44.3799 8.5558 42.2821H9.24018Z" fill="white"/>
<path d="M13.9171 44.1908C13.9171 45.3188 13.157 46.1476 11.998 46.1476C11.3377 46.1476 10.784 45.8106 10.4917 45.2431V46.0754H9.85547V40.5522H10.4917V43.1659C10.7256 42.5916 11.2827 42.2099 12.029 42.2099C13.1777 42.2099 13.9171 43.0799 13.9171 44.1908ZM13.2739 44.1839C13.2739 43.3654 12.6893 42.7842 11.8742 42.7842C11.0695 42.7842 10.4986 43.3963 10.4986 44.1839C10.4986 44.9646 11.0695 45.5767 11.8742 45.5767C12.6859 45.5733 13.2739 44.9921 13.2739 44.1839Z" fill="white"/>
<path d="M18.2888 44.3731H15.0835C15.1282 45.1159 15.6991 45.6111 16.4316 45.6111C17.0541 45.6111 17.4496 45.2638 17.6181 44.9027L18.1821 44.968C17.9861 45.6077 17.3189 46.1477 16.4248 46.1477C15.2898 46.1477 14.4473 45.367 14.4473 44.1736C14.4473 43.0628 15.252 42.1996 16.3663 42.1996C17.5115 42.203 18.3094 43.0353 18.2888 44.3731ZM15.0835 43.8813H17.625C17.6044 43.2347 17.0988 42.7326 16.3663 42.7326C15.6681 42.7326 15.1317 43.2175 15.0835 43.8813Z" fill="white"/>
<path d="M19.6268 42.908C19.84 42.4575 20.2355 42.1789 20.9233 42.2683L20.9164 42.8358C20.1185 42.7257 19.6577 43.0628 19.6577 43.7334V46.0754H19.0215V42.2821H19.5545L19.6268 42.908Z" fill="white"/>
<path d="M22.9805 44.5347H23.6477C23.6924 45.2569 24.2392 45.5871 24.8273 45.5871C25.4704 45.5871 25.8831 45.25 25.8831 44.7548C25.8831 43.5339 23.1834 43.8262 23.1834 42.1204C23.1834 41.3019 23.8643 40.7723 24.7654 40.7723C25.7318 40.7723 26.368 41.3776 26.4127 42.2683L25.7627 42.2821C25.7111 41.7009 25.3466 41.3329 24.7757 41.3329C24.2701 41.3329 23.8609 41.6115 23.8609 42.0998C23.8609 43.3895 26.5709 42.9905 26.5709 44.7204C26.5709 45.6043 25.8452 46.1476 24.8273 46.1476C23.7646 46.1476 23.0252 45.4873 22.9805 44.5347Z" fill="white"/>
<path d="M30.9313 44.3731H27.7261C27.7708 45.1159 28.3417 45.6111 29.0742 45.6111C29.6967 45.6111 30.0922 45.2638 30.2607 44.9027L30.8247 44.968C30.6287 45.6077 29.9615 46.1477 29.0673 46.1477C27.9324 46.1477 27.0898 45.367 27.0898 44.1736C27.0898 43.0628 27.8946 42.1996 29.0089 42.1996C30.1575 42.203 30.9554 43.0353 30.9313 44.3731ZM27.7261 43.8813H30.2676C30.2469 43.2347 29.7414 42.7326 29.0089 42.7326C28.3107 42.7326 27.7777 43.2175 27.7261 43.8813Z" fill="white"/>
<path d="M31.4746 44.177C31.4746 43.049 32.3034 42.203 33.4727 42.203C33.9473 42.203 34.3669 42.3577 34.6868 42.6535V43.2932C34.3875 42.9905 34.0127 42.7842 33.5312 42.7842C32.7333 42.7842 32.1177 43.3895 32.1177 44.177C32.1177 44.9646 32.7333 45.5767 33.5312 45.5767C34.0161 45.5767 34.3875 45.3635 34.6868 45.0678V45.7006C34.3635 46.0032 33.9473 46.1511 33.4727 46.1511C32.3 46.1476 31.4746 45.3016 31.4746 44.177Z" fill="white"/>
<path d="M38.2533 42.2821H38.8964V46.0754H38.3461L38.2808 45.3085C38.0469 45.8381 37.5861 46.1477 36.9258 46.1477C36.1279 46.1477 35.416 45.6765 35.416 44.5141V42.2821H36.0522V44.4247C36.0522 45.3085 36.5647 45.594 37.1149 45.594C37.8165 45.594 38.2498 45.1228 38.2498 44.3352V42.2821H38.2533Z" fill="white"/>
<path d="M40.4393 42.908C40.6525 42.4575 41.048 42.1789 41.7358 42.2683L41.7289 42.8358C40.9311 42.7257 40.4702 43.0628 40.4702 43.7334V46.0754H39.834V42.2821H40.367L40.4393 42.908Z" fill="white"/>
<path d="M42.293 41.3122C42.293 41.0853 42.4684 40.8996 42.6953 40.8996C42.9223 40.8996 43.1046 41.0853 43.1046 41.3122C43.1046 41.5323 42.9223 41.7181 42.6953 41.7181C42.4684 41.7181 42.293 41.5323 42.293 41.3122ZM43.0117 42.2821V46.0754H42.3755V42.2821H43.0117Z" fill="white"/>
<path d="M45.6466 42.2821V42.7911H44.8487V46.0754H44.2056V42.7911H43.6484V42.2821H44.2056V41.1919H44.8487V42.2821H45.6466Z" fill="white"/>
<path d="M49.8495 42.2821L47.5935 47.7675H46.9194L47.6073 46.0823L45.9668 42.2821H46.6615C47.5557 44.3593 47.8102 45.0059 47.934 45.4908C48.0578 45.0059 48.2916 44.3799 49.1652 42.2821H49.8495Z" fill="white"/>
<path d="M51.8848 44.5347H52.552C52.5967 45.2569 53.1435 45.5871 53.7316 45.5871C54.3747 45.5871 54.7874 45.25 54.7874 44.7548C54.7874 43.5339 52.0877 43.8262 52.0877 42.1204C52.0877 41.3019 52.7686 40.7723 53.6697 40.7723C54.6361 40.7723 55.2723 41.3776 55.317 42.2683L54.667 42.2821C54.6154 41.7009 54.2509 41.3329 53.68 41.3329C53.1744 41.3329 52.7652 41.6115 52.7652 42.0998C52.7652 43.3895 55.4752 42.9905 55.4752 44.7204C55.4752 45.6043 54.7495 46.1476 53.7316 46.1476C52.6654 46.1476 51.926 45.4873 51.8848 44.5347Z" fill="white"/>
<path d="M58.9701 42.2821H59.6132V46.0754H59.0629L58.9976 45.3085C58.7637 45.8381 58.3029 46.1477 57.6426 46.1477C56.8447 46.1477 56.1328 45.6765 56.1328 44.5141V42.2821H56.769V44.4247C56.769 45.3085 57.2815 45.594 57.8317 45.594C58.5333 45.594 58.9666 45.1228 58.9666 44.3352V42.2821H58.9701Z" fill="white"/>
<path d="M64.6143 44.1908C64.6143 45.3188 63.8543 46.1476 62.6953 46.1476C62.035 46.1476 61.4813 45.8106 61.189 45.2431V47.7675H60.5527V42.2821H61.0961L61.1924 43.1522V43.1659C61.4263 42.5916 61.9834 42.2099 62.7297 42.2099C63.8749 42.2099 64.6143 43.0799 64.6143 44.1908ZM63.9712 44.1839C63.9712 43.3654 63.3866 42.7842 62.5715 42.7842C61.7667 42.7842 61.1958 43.3963 61.1958 44.1839C61.1958 44.9646 61.7667 45.5767 62.5715 45.5767C63.3866 45.5733 63.9712 44.9921 63.9712 44.1839Z" fill="white"/>
<path d="M69.4112 44.1908C69.4112 45.3188 68.6512 46.1476 67.4922 46.1476C66.8319 46.1476 66.2782 45.8106 65.9859 45.2431V47.7675H65.3496V42.2821H65.893L65.9893 43.1522V43.1659C66.2231 42.5916 66.7803 42.2099 67.5266 42.2099C68.6718 42.2099 69.4112 43.0799 69.4112 44.1908ZM68.7646 44.1839C68.7646 43.3654 68.18 42.7842 67.3649 42.7842C66.5602 42.7842 65.9893 43.3963 65.9893 44.1839C65.9893 44.9646 66.5602 45.5767 67.3649 45.5767C68.18 45.5733 68.7646 44.9921 68.7646 44.1839Z" fill="white"/>
<path d="M69.9375 44.177C69.9375 43.049 70.8007 42.203 71.9494 42.203C73.0912 42.203 73.9544 43.049 73.9544 44.177C73.9544 45.3051 73.0912 46.1511 71.9494 46.1511C70.8007 46.1476 69.9375 45.3016 69.9375 44.177ZM73.3353 44.1667C73.3353 43.3792 72.7335 42.7842 71.9528 42.7842C71.1687 42.7842 70.5634 43.3792 70.5634 44.1667C70.5634 44.9611 71.1721 45.5664 71.9528 45.5664C72.7335 45.5664 73.3353 44.9646 73.3353 44.1667Z" fill="white"/>
<path d="M75.2947 42.908C75.5079 42.4575 75.9034 42.1789 76.5913 42.2683L76.5844 42.8358C75.7865 42.7257 75.3257 43.0628 75.3257 43.7334V46.0754H74.6895V42.2821H75.2225L75.2947 42.908Z" fill="white"/>
<path d="M78.9278 42.2821V42.7911H78.13V46.0754H77.4868V42.7911H76.9297V42.2821H77.4868V41.1919H78.13V42.2821H78.9278Z" fill="white"/>
<path d="M83.2165 44.3731H80.0112C80.0559 45.1159 80.6268 45.6111 81.3594 45.6111C81.9818 45.6111 82.3773 45.2638 82.5459 44.9027L83.1099 44.968C82.9138 45.6077 82.2467 46.1477 81.3525 46.1477C80.2176 46.1477 79.375 45.367 79.375 44.1736C79.375 43.0628 80.1797 42.1996 81.294 42.1996C82.4427 42.203 83.2406 43.0353 83.2165 44.3731ZM80.0112 43.8813H82.5527C82.5321 43.2347 82.0265 42.7326 81.294 42.7326C80.5959 42.7326 80.0628 43.2175 80.0112 43.8813Z" fill="white"/>
<path d="M87.1715 40.5522H87.8077V46.0754H87.1715V45.1847C86.9376 45.7659 86.3805 46.1476 85.6342 46.1476C84.4924 46.1476 83.7461 45.2775 83.7461 44.1667C83.7461 43.0387 84.5062 42.1995 85.672 42.1995C86.322 42.1995 86.8791 42.5469 87.1715 43.104V40.5522ZM87.1646 44.177C87.1646 43.3964 86.5937 42.7842 85.7889 42.7842C84.9773 42.7842 84.3995 43.3654 84.3995 44.177C84.3995 44.9955 84.9773 45.5767 85.7889 45.5767C86.5937 45.5733 87.1646 44.9646 87.1646 44.177Z" fill="white"/>
<path d="M93.9119 46.0754C93.7297 45.5596 93.5749 45.1125 93.4373 44.7066H91.2707L90.803 46.0754H90.1289L91.9964 40.848H92.7358L94.617 46.0754H93.9119ZM93.2482 44.1598C92.5157 42.0482 92.3919 41.6355 92.3403 41.2744C92.2887 41.6355 92.1786 42.0551 91.4633 44.1598H93.2482Z" fill="white"/>
<path d="M95.377 46.0754V40.848H96.027V46.0754H95.377Z" fill="white"/>
</svg>
